<svg width="128" height="128" xmlns="http://www.w3.org/2000/svg">
 <title/>

 <g>
  <title>background</title>
  <rect fill="none" id="canvas_background" height="402" width="582" y="-1" x="-1"/>
 </g>
 <g>
  <title>Layer 1</title>
  <path fill="#ffffff" id="svg_1" d="m64,128a10.18,10.18 0 0 1 -7.22,-3l0,0l-53.78,-53.78a10.21,10.21 0 0 1 0,-14.44l53.78,-53.78a10.22,10.22 0 0 1 14.44,0l53.78,53.78a10.21,10.21 0 0 1 0,14.44l-53.78,53.78a10.18,10.18 0 0 1 -7.22,3zm-4.39,-5.82a6.2,6.2 0 0 0 8.78,0l53.79,-53.79a6.2,6.2 0 0 0 0,-8.78l-53.79,-53.79a6.2,6.2 0 0 0 -8.78,0l-53.79,53.79a6.2,6.2 0 0 0 0,8.78l53.79,53.79z"/>
  <path fill="#ffffff" id="svg_2" d="m64,82a8.24,8.24 0 0 1 -8.25,-7.91l-1.48,-35.49a8.25,8.25 0 0 1 8.25,-8.6l3,0a8.25,8.25 0 0 1 8.25,8.6l-1.52,35.49a8.24,8.24 0 0 1 -8.25,7.91zm-1.48,-48a4.25,4.25 0 0 0 -4.25,4.43l1.48,35.49a4.25,4.25 0 0 0 8.5,0l1.48,-35.49a4.25,4.25 0 0 0 -4.25,-4.43l-2.96,0z"/>
  <path fill="#ffffff" id="svg_3" d="m64,102a8,8 0 1 1 8,-8a8,8 0 0 1 -8,8zm0,-12a4,4 0 1 0 4,4a4,4 0 0 0 -4,-4z"/>
 </g>
</svg>