<svg width="26.547000000000004" height="26.27" xmlns="http://www.w3.org/2000/svg">

 <g>
  <title>background</title>
  <rect fill="none" id="canvas_background" height="402" width="582" y="-1" x="-1"/>
 </g>
 <g>
  <title>Layer 1</title>
  <path fill="#1e8dcd" id="svg_2" d="m25.338,0l-24.14,0c-0.668,0 -1.198,0.563 -1.198,1.232l0,23.811c0,0.669 0.53,1.228 1.198,1.228l24.14,0c0.668,0 1.209,-0.559 1.209,-1.228l0,-23.811c0,-0.669 -0.541,-1.232 -1.209,-1.232zm-0.178,24.837l-23.773,0l0,-23.404l23.773,0l0,23.404z"/>
  <path fill="#1e8dcd" id="svg_3" d="m3.126,20.627l19.972,0c0.627,0 1.139,-0.509 1.139,-1.137l0,-16.178l-0.002,0c0,-0.628 -0.51,-1.139 -1.139,-1.139l-19.97,0c-0.628,0 -1.137,0.511 -1.137,1.139l0,16.178c0,0.628 0.509,1.137 1.137,1.137zm0.249,-17.065l19.52,0l0,15.678l-19.52,0l0,-15.678z"/>
  <path fill="#1e8dcd" id="svg_4" d="m6.99,10.224c1.533,0 2.775,-1.243 2.775,-2.773c0,-1.532 -1.242,-2.775 -2.775,-2.775c-1.532,0 -2.775,1.243 -2.775,2.775c0,1.529 1.243,2.773 2.775,2.773zm0,-4.639c1.027,0 1.864,0.836 1.864,1.864c0,1.027 -0.836,1.863 -1.864,1.863c-1.028,0 -1.864,-0.835 -1.864,-1.863c0,-1.029 0.837,-1.864 1.864,-1.864z"/>
  <path fill="#1e8dcd" id="svg_5" d="m16.911,8.86c-0.25,-0.444 -0.588,-0.669 -0.931,-0.669c-0.33,0 -0.664,0.207 -0.924,0.623l-2.615,4.177c-0.348,0.556 -0.923,0.862 -1.49,0.862c-0.301,0 -0.599,-0.086 -0.861,-0.264c-0.288,-0.195 -0.63,-0.289 -0.98,-0.289c-0.581,0 -1.183,0.257 -1.585,0.731l-2.604,3.074c-0.649,0.766 -0.359,1.395 0.643,1.395l14.907,0c1.002,0 1.422,-0.721 0.934,-1.597l-4.494,-8.043zm3.562,8.715l-14.764,0l2.509,-2.956c0.216,-0.253 0.558,-0.411 0.892,-0.411c0.18,0 0.341,0.046 0.469,0.134c0.405,0.275 0.88,0.422 1.374,0.422c0.911,0 1.757,-0.481 2.263,-1.291l2.613,-4.175c0.062,-0.103 0.116,-0.153 0.147,-0.178c0.031,0.024 0.082,0.081 0.141,0.185l4.492,8.038c0.055,0.097 0.076,0.165 0.084,0.205c-0.041,0.014 -0.11,0.027 -0.22,0.027z"/>
 </g>
</svg>